<?xml version="1.0" encoding="UTF-8"?>
<svg id="Layer_1" data-name="Layer 1" xmlns="http://www.w3.org/2000/svg" viewBox="0 0 284.59 107.54">
  <defs>
    <style>
      .cls-1 {
        fill: #b3e0d7;
      }

      .cls-1, .cls-2 {
        stroke-width: 0px;
      }

      .cls-2 {
        fill: #002554;
      }
    </style>
  </defs>
  <path class="cls-1" d="M229.26,71.99c-.17-.23-.44-.36-.73-.36h-8.94c-.36,0-.69.21-.83.54-2.86,6.49-9.29,10.69-16.38,10.69s-13.52-4.19-16.38-10.69c-.15-.33-.47-.54-.83-.54h-8.94c-.29,0-.56.13-.73.36-.17.23-.23.52-.15.8,3.46,11.96,14.57,20.31,27.02,20.31s23.56-8.35,27.02-20.31c.08-.27.03-.57-.15-.8Z"/>
  <g>
    <polygon class="cls-2" points="18.21 95.6 8.92 95.6 8.92 88.27 4.56 88.27 4.56 107.54 8.92 107.54 8.92 99.57 18.21 99.57 18.21 107.54 22.57 107.54 22.57 88.27 18.21 88.27 18.21 95.6"/>
    <polygon class="cls-2" points="34.55 99.54 43.85 99.54 43.85 95.85 34.55 95.85 34.55 92.24 45.24 92.24 45.24 88.27 30.18 88.27 30.18 107.54 45.52 107.54 45.52 103.54 34.55 103.54 34.55 99.54"/>
    <path class="cls-2" d="M58.87,88.27l-8.26,19.04-.1.22h4.56l1.89-4.49h8.01l1.89,4.49h4.7l-8.13-19.27h-4.56ZM63.5,99.55h-5.06l2.52-5.97,2.54,5.97Z"/>
    <polygon class="cls-2" points="81.58 88.27 77.22 88.27 77.22 107.54 91.36 107.54 91.36 103.54 81.58 103.54 81.58 88.27"/>
    <polygon class="cls-2" points="92.29 92.24 98.81 92.24 98.81 107.54 103.17 107.54 103.17 92.24 109.72 92.24 109.72 88.27 92.29 88.27 92.29 92.24"/>
    <polygon class="cls-2" points="129.7 88.27 129.7 95.6 120.41 95.6 120.41 88.27 116.05 88.27 116.05 107.54 120.41 107.54 120.41 99.57 129.7 99.57 129.7 107.54 134.06 107.54 134.06 88.27 129.7 88.27"/>
  </g>
  <path class="cls-2" d="M21.97,21.01c-6.21,0-11.42,2.12-15.64,6.37C2.11,31.63,0,36.74,0,42.71s2.12,11.07,6.37,15.29c4.25,4.22,9.43,6.33,15.56,6.33,3.13,0,6.21-.52,9.23-1.55,3.03-1.04,5.44-2.45,7.25-4.26.64-.58.54-1.42-.28-2.51l-2.75-3.42c-.29-.32-.57-.54-.84-.68-.26-.13-.94.04-2.03.52-3.48,1.73-6.73,2.59-9.75,2.59s-5.56-.84-7.6-2.51c-2.04-1.7-3.37-3.8-3.98-6.29h28.86c.69,0,1.17-.15,1.43-.44.26-.29.38-.85.36-1.67-.03-6.47-1.79-11.94-5.29-16.4-3.5-4.46-8.36-6.69-14.57-6.69ZM11.51,39.2c.32-2.49,1.3-4.67,2.95-6.53,1.65-1.86,3.89-2.79,6.73-2.79s5.07.92,6.61,2.75c1.54,1.83,2.52,4.02,2.95,6.57H11.51Z"/>
  <path class="cls-2" d="M97.85,19.66c-5.09,0-9.29,2.34-12.58,7.01-2.89-4.67-7.38-7.01-13.45-7.01-1.96.03-3.76.41-5.37,1.15-1.62.74-2.84,1.53-3.66,2.35-.82.82-1.83,1.96-3.02,3.42l-1.39-4.06c-.37-.77-.72-1.29-1.03-1.55-.32-.26-.73-.4-1.23-.4h-3.42c-.77,0-1.29.13-1.55.4-.27.27-.4.78-.4,1.55v37.58c0,.77.13,1.29.4,1.55.26.27.78.4,1.55.4h6.93c.77,0,1.29-.13,1.55-.4.26-.26.4-.78.4-1.55v-19.07c0-3.93.61-6.86,1.83-8.8,1.25-1.94,3.2-2.91,5.85-2.91s4.58.94,5.77,2.83c1.19,1.88,1.79,4.82,1.79,8.8v19.15c0,.77.13,1.29.4,1.55.26.27.78.4,1.55.4h6.93c.77,0,1.29-.13,1.55-.4.26-.26.4-.78.4-1.55v-19.82c.03-7.27,2.56-10.91,7.6-10.91,2.6-.03,4.51.9,5.73,2.79,1.22,1.88,1.83,4.82,1.83,8.8v19.15c.03.77.17,1.29.44,1.55.26.27.78.4,1.55.4h6.93c.77,0,1.29-.13,1.55-.4.26-.26.4-.78.4-1.55v-21.46c-.03-6.87-1.39-11.76-4.1-14.65-2.71-2.89-6.61-4.34-11.7-4.34Z"/>
  <path class="cls-2" d="M146.86,19.66c-5.52,0-10.38,2.31-14.57,6.93l-1.39-4.06c-.32-.56-.64-1.02-.96-1.39-.29-.37-.76-.56-1.39-.56h-3.26c-.77,0-1.29.13-1.55.4-.27.27-.4.78-.4,1.55v54.22c0,.77.13,1.29.4,1.55.26.26.78.4,1.55.4h6.93c.77,0,1.29-.13,1.55-.4.26-.27.4-.78.4-1.55v-20.3c.88,1.41,2.47,2.85,4.78,4.34,2.31,1.49,5.02,2.22,8.12,2.19,5.44,0,9.94-2.11,13.49-6.33,3.56-4.22,5.33-9.32,5.33-15.29s-1.79-11.08-5.37-15.33c-3.58-4.25-8.13-6.37-13.65-6.37ZM152.07,49.8c-1.96,2.31-4.43,3.46-7.4,3.46s-5.47-1.15-7.48-3.46c-2.02-2.31-3.03-5.15-3.03-8.52s1.01-6.22,3.03-8.56c2.02-2.34,4.5-3.5,7.44-3.5s5.45,1.14,7.44,3.42c1.96,2.28,2.95,5.14,2.95,8.56s-.98,6.29-2.95,8.6Z"/>
  <path class="cls-2" d="M183.04,1.91h-6.93c-.77,0-1.29.13-1.55.4-.27.27-.4.78-.4,1.55v56.25c0,.77.13,1.29.4,1.55.26.27.78.4,1.55.4h6.93c.77,0,1.3-.13,1.59-.4.29-.26.44-.78.44-1.55V3.86c0-.77-.15-1.29-.44-1.55-.29-.26-.82-.4-1.59-.4Z"/>
  <path class="cls-2" d="M204.52,20.58h-6.93c-.77,0-1.29.13-1.55.4-.27.27-.4.78-.4,1.55v37.58c0,.77.13,1.29.4,1.55.26.27.78.4,1.55.4h6.93c.77,0,1.29-.13,1.55-.4.26-.26.4-.78.4-1.55V22.53c0-.77-.13-1.29-.4-1.55-.27-.26-.78-.4-1.55-.4Z"/>
  <path class="cls-2" d="M200.93,1.31c-1.8,0-3.32.64-4.54,1.91-1.22,1.27-1.83,2.81-1.83,4.62s.61,3.33,1.83,4.58c1.22,1.25,2.73,1.87,4.54,1.87s3.34-.62,4.62-1.87c1.27-1.25,1.91-2.77,1.91-4.58s-.64-3.34-1.91-4.62c-1.27-1.27-2.81-1.91-4.62-1.91Z"/>
  <path class="cls-2" d="M284.53,21.16c-.13-.26-.56-.4-1.27-.4h-7.88c-.66,0-1.15.12-1.47.36-.32.24-.68.77-1.07,1.59l-10.11,22.81h-.08l-10.19-22.81c-.45-.77-.84-1.29-1.15-1.55-.32-.26-.8-.4-1.43-.4h-5.94c-.17-.02-.35-.03-.55-.03h-11.42v-2.15c0-5.92,2.2-8.88,6.61-8.88,1.67.03,3.01.29,4.02.8,1.01.5,1.68.69,2.03.56.32-.13.56-.69.72-1.67l.88-4.9c.11-.72.09-1.22-.04-1.51-.13-.29-.47-.62-1-.99-2.12-1.33-4.74-1.99-7.84-1.99-5.33,0-9.37,1.59-12.1,4.78-2.73,3.18-4.1,7.66-4.1,13.41v2.55h-4.5c-.77,0-1.29.13-1.55.4-.27.27-.4.78-.4,1.55v4.66c0,.74.13,1.25.4,1.51.26.27.78.41,1.55.44h4.5v30.81c0,.77.13,1.29.4,1.55.26.27.78.4,1.55.4h6.93c.77,0,1.29-.13,1.55-.4.26-.26.4-.78.4-1.55v-30.81h11.42c.23,0,.43-.03.62-.06l12.95,28.43-8.72,19.27c-.34.77-.45,1.29-.32,1.55.13.26.56.4,1.27.4h7.92c.66,0,1.14-.12,1.43-.36.29-.24.65-.77,1.08-1.59l24.64-54.22c.32-.77.41-1.29.28-1.55Z"/>
</svg>